<svg width="22" height="16" viewBox="0 0 22 16" fill="none" xmlns="http://www.w3.org/2000/svg">
<path d="M21.54 2.37797C21.4156 1.91806 21.1705 1.49832 20.8292 1.16075C20.4878 0.823182 20.0622 0.57963 19.595 0.454466C17.875 0 11 0 11 0C11 0 4.125 0 2.405 0.454466C1.93777 0.57963 1.51219 0.823182 1.17085 1.16075C0.829506 1.49832 0.58438 1.91806 0.46 2.37797C0 4.07546 0 7.61538 0 7.61538C0 7.61538 0 11.1553 0.46 12.8528C0.58438 13.3127 0.829506 13.7325 1.17085 14.07C1.51219 14.4076 1.93777 14.6511 2.405 14.7763C4.125 15.2308 11 15.2308 11 15.2308C11 15.2308 17.875 15.2308 19.595 14.7763C20.0622 14.6511 20.4878 14.4076 20.8292 14.07C21.1705 13.7325 21.4156 13.3127 21.54 12.8528C22 11.1553 22 7.61538 22 7.61538C22 7.61538 22 4.07546 21.54 2.37797Z" fill="#EEEEEE"/>
<path d="M9 10.0769L14.0769 7.53846L9 5V10.0769Z" fill="#060606"/>
</svg>
