<svg width="24" height="24" viewBox="0 0 24 24" fill="none" xmlns="http://www.w3.org/2000/svg">
<path fill-rule="evenodd" clip-rule="evenodd" d="M4 2H20C21.1 2 22 2.89 22 4V20C22 21.1046 21.1046 22 20 22H4C2.89543 22 2 21.1046 2 20V4C2 2.89 2.89 2 4 2ZM4.69 6.5C4.69 7.5 5.5 8.31 6.5 8.31C7.49964 8.31 8.31 7.49964 8.31 6.5C8.31 5.5 7.5 4.69 6.5 4.69C5.50036 4.69 4.69 5.50036 4.69 6.5ZM16 19H19V13.3C19 11.367 17.433 9.8 15.5 9.8C14.59 9.8 13.5 10.36 13 11.2V10H10V19H13V13.7C13 12.8716 13.6716 12.2 14.5 12.2C15.3284 12.2 16 12.8716 16 13.7V19ZM5 19V10H8V19H5Z" fill="#EEEEEE"/>
</svg>
