<svg width="82" height="82" viewBox="0 0 82 82" fill="none" xmlns="http://www.w3.org/2000/svg">
<path d="M41.0001 80.2708C62.6888 80.2708 80.2709 62.6886 80.2709 41C80.2709 19.3113 62.6888 1.72913 41.0001 1.72913M41.0001 80.2708C19.3114 80.2708 1.72925 62.6886 1.72925 41C1.72925 19.3113 19.3114 1.72913 41.0001 1.72913M41.0001 80.2708C47.731 80.2708 58.6042 65.375 58.6042 41C58.6042 16.625 47.731 1.72913 41.0001 1.72913M41.0001 80.2708C34.2691 80.2708 23.3959 65.375 23.3959 41C23.3959 16.625 34.2691 1.72913 41.0001 1.72913M3.08341 41H78.9167" stroke="url(#paint0_linear)" stroke-width="2" stroke-linecap="round" stroke-linejoin="round"/>
<defs>
<linearGradient id="paint0_linear" x1="1.72925" y1="41" x2="80.2709" y2="41" gradientUnits="userSpaceOnUse">
<stop stop-color="#00E6FF"/>
<stop offset="1" stop-color="#6439E1"/>
</linearGradient>
</defs>
</svg>
