<svg width="82" height="82" viewBox="0 0 82 82" fill="none" xmlns="http://www.w3.org/2000/svg">
<path d="M26.1045 13.9167C26.1045 20.6477 20.648 26.1042 13.917 26.1042C7.18602 26.1042 1.72949 20.6477 1.72949 13.9167C1.72949 7.18578 7.18602 1.72925 13.917 1.72925C20.648 1.72925 26.1045 7.18578 26.1045 13.9167Z" stroke="url(#paint0_linear)" stroke-width="2" stroke-linecap="round" stroke-linejoin="round"/>
<path d="M28.8125 39.6458H54.5417M12.5625 54.5416V27.4583" stroke="url(#paint1_linear)" stroke-width="2" stroke-linecap="round" stroke-linejoin="round"/>
<path d="M80.2705 41C80.2705 47.731 74.814 53.1875 68.083 53.1875C61.352 53.1875 55.8955 47.731 55.8955 41C55.8955 34.269 61.352 28.8125 68.083 28.8125C74.814 28.8125 80.2705 34.269 80.2705 41Z" stroke="url(#paint2_linear)" stroke-width="2" stroke-linecap="round" stroke-linejoin="round"/>
<path d="M26.1045 68.0833C26.1045 74.8142 20.648 80.2708 13.917 80.2708C7.18602 80.2708 1.72949 74.8142 1.72949 68.0833C1.72949 61.3523 7.18602 55.8958 13.917 55.8958C20.648 55.8958 26.1045 61.3523 26.1045 68.0833Z" stroke="url(#paint3_linear)" stroke-width="2" stroke-linecap="round" stroke-linejoin="round"/>
<defs>
<linearGradient id="paint0_linear" x1="1.72949" y1="13.9167" x2="26.1045" y2="13.9167" gradientUnits="userSpaceOnUse">
<stop stop-color="#6439E1"/>
<stop offset="1" stop-color="#00E6FF"/>
</linearGradient>
<linearGradient id="paint1_linear" x1="12.5625" y1="40.9999" x2="54.5417" y2="40.9999" gradientUnits="userSpaceOnUse">
<stop stop-color="#6439E1"/>
<stop offset="1" stop-color="#00E6FF"/>
</linearGradient>
<linearGradient id="paint2_linear" x1="55.8955" y1="41" x2="80.2705" y2="41" gradientUnits="userSpaceOnUse">
<stop stop-color="#6439E1"/>
<stop offset="1" stop-color="#00E6FF"/>
</linearGradient>
<linearGradient id="paint3_linear" x1="1.72949" y1="68.0833" x2="26.1045" y2="68.0833" gradientUnits="userSpaceOnUse">
<stop stop-color="#6439E1"/>
<stop offset="1" stop-color="#00E6FF"/>
</linearGradient>
</defs>
</svg>
