<svg width="130" height="130" viewBox="0 0 130 130" fill="none" xmlns="http://www.w3.org/2000/svg">
<path d="M58.2292 25.7292C52.2461 25.7292 47.3958 30.5795 47.3958 36.5626V61.7164C40.89 65.7841 36.5625 73.0117 36.5625 81.2501C36.5625 93.9641 46.8693 104.271 59.5833 104.271C72.2974 104.271 82.6042 93.9641 82.6042 81.2501C82.6042 73.0117 78.2767 65.7841 71.7708 61.7164V36.5626C71.7708 30.5795 66.9206 25.7292 60.9375 25.7292H58.2292Z" stroke="url(#paint0_linear)" stroke-width="2" stroke-linecap="round" stroke-linejoin="round"/>
<path d="M93.4376 25.7292H90.7292" stroke="url(#paint1_linear)" stroke-width="2" stroke-linecap="round" stroke-linejoin="round"/>
<path d="M93.4376 41.9792H90.7292" stroke="url(#paint2_linear)" stroke-width="2" stroke-linecap="round" stroke-linejoin="round"/>
<path d="M93.4376 58.2292H90.7292" stroke="url(#paint3_linear)" stroke-width="2" stroke-linecap="round" stroke-linejoin="round"/>
<path d="M59.5833 82.6043V70.4167" stroke="url(#paint4_linear)" stroke-width="2" stroke-linecap="round" stroke-linejoin="round"/>
<defs>
<linearGradient id="paint0_linear" x1="36.5625" y1="65.0001" x2="82.6042" y2="65.0001" gradientUnits="userSpaceOnUse">
<stop stop-color="#6439E1"/>
<stop offset="1" stop-color="#00E6FF"/>
</linearGradient>
<linearGradient id="paint1_linear" x1="90.7292" y1="26.2292" x2="93.4376" y2="26.2292" gradientUnits="userSpaceOnUse">
<stop stop-color="#6439E1"/>
<stop offset="1" stop-color="#00E6FF"/>
</linearGradient>
<linearGradient id="paint2_linear" x1="90.7292" y1="42.4792" x2="93.4376" y2="42.4792" gradientUnits="userSpaceOnUse">
<stop stop-color="#6439E1"/>
<stop offset="1" stop-color="#00E6FF"/>
</linearGradient>
<linearGradient id="paint3_linear" x1="90.7292" y1="58.7292" x2="93.4376" y2="58.7292" gradientUnits="userSpaceOnUse">
<stop stop-color="#6439E1"/>
<stop offset="1" stop-color="#00E6FF"/>
</linearGradient>
<linearGradient id="paint4_linear" x1="59.5833" y1="76.5105" x2="60.5833" y2="76.5105" gradientUnits="userSpaceOnUse">
<stop stop-color="#6439E1"/>
<stop offset="1" stop-color="#00E6FF"/>
</linearGradient>
</defs>
</svg>
