<svg width="82" height="82" viewBox="0 0 82 82" fill="none" xmlns="http://www.w3.org/2000/svg">
<path d="M1.72913 36.9375L31.5208 7.14579M36.9375 20.6875V1.72913H17.9791M7.14579 80.2719H9.85413C12.8457 80.2719 15.2708 77.8468 15.2708 74.8552V61.3124C15.2708 58.3208 12.8457 55.8958 9.85413 55.8958H7.14579C4.15428 55.8958 1.72913 58.3208 1.72913 61.3124V74.8552C1.72913 77.8468 4.15428 80.2719 7.14579 80.2719ZM39.6458 80.2719H42.3541C45.3457 80.2719 47.7708 77.8468 47.7708 74.8552V45.0625C47.7708 42.0708 45.3457 39.6458 42.3541 39.6458H39.6458C36.6542 39.6458 34.2291 42.0708 34.2291 45.0625V74.8552C34.2291 77.8468 36.6542 80.2719 39.6458 80.2719ZM72.1458 80.2719H74.8541C77.8457 80.2719 80.2708 77.8468 80.2708 74.8552V7.14579C80.2708 4.15428 77.8457 1.72913 74.8541 1.72913H72.1458C69.1542 1.72913 66.7291 4.15428 66.7291 7.14579V74.8552C66.7291 77.8468 69.1542 80.2719 72.1458 80.2719Z" stroke="url(#paint0_linear)" stroke-width="2" stroke-linecap="round" stroke-linejoin="round"/>
<defs>
<linearGradient id="paint0_linear" x1="1.72913" y1="41.0005" x2="80.2708" y2="41.0005" gradientUnits="userSpaceOnUse">
<stop stop-color="#00E6FF"/>
<stop offset="1" stop-color="#6439E1"/>
</linearGradient>
</defs>
</svg>
